<svg width="398" height="68" viewBox="0 0 398 68" fill="none" xmlns="http://www.w3.org/2000/svg">
<path d="M382.55 64.9999H371.923V36.3006H382.55V40.7401H382.375C382.561 40.2041 383.016 39.5283 383.738 38.7126C384.461 37.8737 385.474 37.1279 386.779 36.4754C388.084 35.7996 389.681 35.4617 391.568 35.4617C392.897 35.4617 394.12 35.6714 395.239 36.0909C396.357 36.4871 397.173 36.8716 397.686 37.2445L393.561 45.8787C393.235 45.4825 392.652 45.0747 391.813 44.6552C390.997 44.2125 389.972 43.9911 388.737 43.9911C387.315 43.9911 386.139 44.3523 385.206 45.0747C384.297 45.7971 383.622 46.6711 383.179 47.6965C382.759 48.7218 382.55 49.689 382.55 50.5978V64.9999Z" fill="white"/>
<path d="M346.471 52.905C346.541 53.9304 346.867 54.8392 347.45 55.6316C348.033 56.4239 348.837 57.0531 349.862 57.5192C350.911 57.962 352.146 58.1834 353.567 58.1834C354.919 58.1834 356.131 58.0436 357.203 57.7639C358.298 57.4843 359.242 57.1347 360.034 56.7152C360.85 56.2958 361.479 55.8646 361.922 55.4218L366.047 61.9937C365.464 62.6229 364.637 63.2405 363.565 63.8464C362.516 64.429 361.13 64.9067 359.405 65.2796C357.681 65.6525 355.502 65.8389 352.868 65.8389C349.699 65.8389 346.879 65.2446 344.409 64.0561C341.939 62.8676 339.993 61.1198 338.571 58.8126C337.149 56.5055 336.439 53.6857 336.439 50.3531C336.439 47.5566 337.045 45.0398 338.256 42.8025C339.492 40.542 341.274 38.7592 343.605 37.4542C345.935 36.1258 348.743 35.4617 352.029 35.4617C355.152 35.4617 357.855 36.0326 360.139 37.1745C362.446 38.3165 364.217 40.0177 365.453 42.2782C366.711 44.5154 367.34 47.3119 367.34 50.6678C367.34 50.8542 367.329 51.2271 367.305 51.7864C367.305 52.3457 367.282 52.7185 367.235 52.905H346.471ZM357.343 47.3469C357.319 46.6012 357.121 45.8671 356.748 45.1446C356.376 44.3989 355.816 43.793 355.071 43.3269C354.325 42.8375 353.369 42.5928 352.204 42.5928C351.039 42.5928 350.048 42.8258 349.233 43.2919C348.44 43.7347 347.835 44.3173 347.415 45.0398C346.996 45.7622 346.763 46.5312 346.716 47.3469H357.343Z" fill="white"/>
<path d="M323.109 36.3008H335.134L321.606 50.0037L336.532 65.0001H324.228L313.146 53.4644V65.0001H302.52V16.8999H313.146V46.2983L323.109 36.3008Z" fill="white"/>
<path d="M289.321 57.4843C290.65 57.4843 291.745 57.2629 292.607 56.8201C293.469 56.354 294.052 55.9811 294.355 55.7015L299.214 62.9025C298.841 63.2055 298.2 63.6017 297.291 64.0911C296.382 64.5571 295.241 64.965 293.866 65.3145C292.514 65.6641 290.964 65.8389 289.216 65.8389C285.93 65.8389 283.041 65.2213 280.547 63.9862C278.054 62.7278 276.108 60.9566 274.709 58.6728C273.334 56.389 272.647 53.709 272.647 50.6328C272.647 47.5333 273.334 44.8533 274.709 42.5928C276.108 40.3323 278.054 38.5845 280.547 37.3493C283.041 36.0909 285.93 35.4617 289.216 35.4617C290.941 35.4617 292.479 35.6481 293.831 36.021C295.206 36.3705 296.359 36.7784 297.291 37.2445C298.223 37.6872 298.876 38.0718 299.249 38.398L294.285 45.669C294.122 45.5058 293.819 45.2728 293.376 44.9698C292.957 44.6669 292.409 44.3989 291.733 44.1658C291.057 43.9328 290.253 43.8163 289.321 43.8163C288.179 43.8163 287.107 44.1076 286.105 44.6902C285.126 45.2728 284.334 46.0768 283.728 47.1022C283.122 48.1276 282.819 49.3045 282.819 50.6328C282.819 51.9611 283.122 53.1497 283.728 54.1984C284.334 55.2238 285.126 56.0278 286.105 56.6104C287.107 57.193 288.179 57.4843 289.321 57.4843Z" fill="white"/>
<path d="M256.57 64.9999V60.3507C256.36 60.8168 255.824 61.4926 254.962 62.3782C254.123 63.2638 253.005 64.0678 251.606 64.7902C250.208 65.4893 248.577 65.8389 246.712 65.8389C243.916 65.8389 241.469 65.1631 239.371 63.8114C237.274 62.4365 235.643 60.6071 234.478 58.3232C233.312 56.0161 232.73 53.4643 232.73 50.6678C232.73 47.8712 233.312 45.3311 234.478 43.0472C235.643 40.7401 237.274 38.8991 239.371 37.5241C241.469 36.1492 243.916 35.4617 246.712 35.4617C248.507 35.4617 250.08 35.753 251.431 36.3356C252.783 36.8949 253.878 37.5707 254.717 38.3631C255.556 39.1321 256.139 39.8429 256.465 40.4954V36.3006H267.022V64.9999H256.57ZM243.147 50.6678C243.147 51.9728 243.45 53.1497 244.056 54.1984C244.662 55.2238 245.466 56.0278 246.468 56.6104C247.493 57.193 248.623 57.4843 249.858 57.4843C251.14 57.4843 252.27 57.193 253.249 56.6104C254.228 56.0278 254.997 55.2238 255.556 54.1984C256.139 53.1497 256.43 51.9728 256.43 50.6678C256.43 49.3627 256.139 48.1975 255.556 47.1721C254.997 46.1234 254.228 45.3078 253.249 44.7251C252.27 44.1192 251.14 43.8163 249.858 43.8163C248.623 43.8163 247.493 44.1192 246.468 44.7251C245.466 45.3078 244.662 46.1234 244.056 47.1721C243.45 48.1975 243.147 49.3627 243.147 50.6678Z" fill="white"/>
<path d="M217.052 64.9999H206.426V36.3006H217.052V40.7401H216.878C217.064 40.2041 217.518 39.5283 218.241 38.7126C218.963 37.8737 219.977 37.1279 221.282 36.4754C222.587 35.7996 224.183 35.4617 226.071 35.4617C227.399 35.4617 228.623 35.6714 229.742 36.0909C230.86 36.4871 231.676 36.8716 232.188 37.2445L228.064 45.8787C227.737 45.4825 227.155 45.0747 226.316 44.6552C225.5 44.2125 224.475 43.9911 223.24 43.9911C221.818 43.9911 220.641 44.3523 219.709 45.0747C218.8 45.7971 218.124 46.6711 217.682 47.6965C217.262 48.7218 217.052 49.689 217.052 50.5978V64.9999Z" fill="white"/>
<path d="M179.49 36.3006H184.383V24.5203H194.905V36.3006H201.337V45.0397H194.905V53.0448C194.905 54.2333 195.08 55.2004 195.43 55.9462C195.779 56.6686 196.42 57.0298 197.352 57.0298C197.982 57.0298 198.518 56.89 198.96 56.6104C199.403 56.3307 199.671 56.1443 199.764 56.0511L203.4 63.6017C203.237 63.7415 202.724 63.9978 201.862 64.3707C201.023 64.7436 199.951 65.0815 198.646 65.3844C197.341 65.6874 195.884 65.8389 194.276 65.8389C191.41 65.8389 189.044 65.0349 187.18 63.4269C185.316 61.7956 184.383 59.2904 184.383 55.9112V45.0397H179.49V36.3006Z" fill="white"/>
<path d="M159.281 67.6005C156.924 67.6005 155.033 66.6887 153.61 64.8651C152.187 62.997 151.475 60.3728 151.475 56.9924C151.475 54.0569 151.987 51.1436 153.01 48.2525C154.077 45.3614 155.456 42.7372 157.146 40.3799C158.836 38.0225 160.682 36.1322 162.684 34.7089C164.73 33.2856 166.709 32.574 168.621 32.574C170.712 32.574 172.202 33.0855 173.091 34.1085C174.025 35.087 174.493 36.4213 174.493 38.1115C174.493 40.113 173.781 42.1145 172.358 44.116C170.979 46.0731 169.022 47.83 166.486 49.3867C163.996 50.9434 161.06 52.0999 157.68 52.856C156.701 53.0784 156.19 53.6343 156.145 54.5239C156.101 54.8353 156.079 55.1688 156.079 55.5247C156.079 55.836 156.079 56.1474 156.079 56.4587C156.079 58.994 156.501 60.9065 157.346 62.1964C158.236 63.4862 159.437 64.1312 160.949 64.1312C162.639 64.1312 164.263 63.3528 165.819 61.7961C167.421 60.2393 168.755 58.0377 169.822 55.1911C169.956 54.7908 170.223 54.5906 170.623 54.5906C170.89 54.5906 171.045 54.7018 171.09 54.9242C171.179 55.1466 171.179 55.4135 171.09 55.7248C169.667 59.6389 167.932 62.5967 165.886 64.5982C163.884 66.5997 161.683 67.6005 159.281 67.6005ZM156.812 50.3207C156.724 50.6321 156.768 50.8989 156.946 51.1213C157.168 51.2992 157.435 51.3437 157.747 51.2548C160.504 50.4986 162.817 49.3644 164.685 47.8522C166.553 46.2955 167.954 44.5608 168.888 42.6483C169.867 40.7357 170.356 38.8676 170.356 37.044C170.356 35.1759 169.622 34.2419 168.154 34.2419C166.865 34.2419 165.463 34.998 163.951 36.5103C162.439 38.0225 161.038 40.0018 159.748 42.4481C158.458 44.8944 157.48 47.5186 156.812 50.3207Z" fill="white"/>
<path d="M135.256 67.6005C133.076 67.6005 131.453 66.7776 130.385 65.1319C129.318 63.4862 129.118 61.3735 129.785 58.7938L134.922 39.5126C135.5 37.4221 135.144 36.3769 133.855 36.3769C132.921 36.3769 131.987 37.044 131.052 38.3784C130.163 39.7127 129.184 41.8921 128.117 44.9166C127.939 45.4504 127.628 45.7172 127.183 45.7172C126.96 45.7172 126.783 45.6283 126.649 45.4504C126.516 45.228 126.493 44.9611 126.582 44.6498C129.162 36.5992 132.387 32.574 136.256 32.574C137.769 32.574 138.792 33.1967 139.325 34.4421C139.859 35.6874 139.837 37.3998 139.259 39.5793L133.988 59.461C133.499 61.3291 133.454 62.7746 133.855 63.7976C134.299 64.7761 135.078 65.2654 136.19 65.2654C137.48 65.2654 138.836 64.6427 140.259 63.3973C141.727 62.1519 143.106 60.5284 144.396 58.5269C145.686 56.5254 146.731 54.3238 147.532 51.9219C148.332 49.5201 148.733 47.1628 148.733 44.8499C148.733 42.9818 148.532 41.5141 148.132 40.4466C147.732 39.3346 147.309 38.4006 146.864 37.6445C146.464 36.8883 146.264 36.0655 146.264 35.1759C146.264 33.4413 147.02 32.574 148.532 32.574C150.667 32.574 151.735 34.9313 151.735 39.646C151.735 43.0263 151.246 46.3844 150.267 49.7203C149.288 53.0117 147.999 56.0139 146.397 58.7271C144.796 61.3958 143.017 63.553 141.06 65.1986C139.147 66.7999 137.213 67.6005 135.256 67.6005Z" fill="white"/>
<path d="M116.102 67.6672C114.634 67.6672 113.589 67.1334 112.966 66.066C112.344 64.954 112.321 63.1526 112.9 60.6619L117.837 39.5126C118.059 38.534 118.081 37.7779 117.903 37.2442C117.77 36.666 117.37 36.3769 116.703 36.3769C115.902 36.3769 115.012 36.9773 114.034 38.1782C113.1 39.3346 112.032 41.5585 110.831 44.8499C110.654 45.4281 110.342 45.7172 109.897 45.7172C109.23 45.7172 109.052 45.3169 109.364 44.5163C110.342 41.4474 111.365 39.0455 112.433 37.3109C113.545 35.5762 114.657 34.3531 115.769 33.6415C116.88 32.9298 117.903 32.574 118.838 32.574C120.394 32.574 121.484 33.13 122.107 34.2419C122.729 35.3094 122.752 37.0885 122.173 39.5793L117.236 60.7286C117.014 61.7071 116.969 62.4855 117.103 63.0637C117.281 63.5974 117.703 63.8643 118.37 63.8643C119.171 63.8643 120.038 63.2861 120.972 62.1297C121.951 60.9288 123.041 58.6826 124.242 55.3912C124.42 54.813 124.731 54.5239 125.176 54.5239C125.843 54.5239 126.021 54.9242 125.709 55.7248C124.775 58.7493 123.73 61.1511 122.574 62.9303C121.462 64.6649 120.35 65.8881 119.238 66.5997C118.126 67.3114 117.081 67.6672 116.102 67.6672Z" fill="white"/>
<path d="M98.5914 67.6005C97.0791 67.6005 95.9005 67.0001 95.0554 65.7992C94.2103 64.5983 94.0769 62.6635 94.6551 59.9948L100.193 35.8432C100.326 35.176 100.059 34.8424 99.392 34.8424H96.8568C96.2341 34.8424 95.9227 34.5533 95.9227 33.9751C95.9227 33.6638 96.0339 33.4191 96.2563 33.2412C96.4787 33.0633 96.7456 32.9744 97.0569 32.9744H99.4587C100.482 32.9744 101.082 32.5073 101.26 31.5733L102.861 24.4346C102.995 23.9453 103.306 23.7007 103.795 23.7007H106.531C107.153 23.7007 107.398 23.9898 107.265 24.568L105.597 31.9736C105.463 32.6408 105.73 32.9744 106.397 32.9744H110.2C110.956 32.9744 111.334 33.2635 111.334 33.8417C111.334 34.5089 110.867 34.8424 109.933 34.8424H106.331C105.352 34.8424 104.752 35.3095 104.529 36.2435L98.925 60.662C98.7026 61.6405 98.7248 62.4189 98.9917 62.9971C99.303 63.5308 99.8145 63.7977 100.526 63.7977C101.549 63.7977 102.483 63.2195 103.328 62.063C104.218 60.9066 105.152 58.7049 106.13 55.458C106.308 54.8798 106.597 54.5907 106.998 54.5907C107.309 54.5907 107.509 54.7241 107.598 54.991C107.687 55.2579 107.62 55.7471 107.398 56.4588C106.553 59.4833 105.619 61.7962 104.596 63.3974C103.617 64.9986 102.617 66.1105 101.594 66.7332C100.571 67.3114 99.5699 67.6005 98.5914 67.6005Z" fill="white"/>
<path d="M68.9081 67.6005C67.3069 67.6005 66.0616 66.9111 65.172 65.5322C64.2824 64.1534 63.8376 62.1297 63.8376 59.461C63.8376 56.9257 64.1935 54.3905 64.9051 51.8552C65.6168 49.2755 66.5953 46.8292 67.8407 44.5163C69.0861 42.2035 70.4871 40.1575 72.0438 38.3784C73.6451 36.5992 75.313 35.1982 77.0476 34.1752C78.8268 33.1077 80.5836 32.574 82.3183 32.574C83.1634 32.574 83.964 32.7519 84.7201 33.1077C85.4762 33.4191 86.0989 33.9306 86.5882 34.6422C86.855 35.0425 87.1219 35.2427 87.3888 35.2427C87.6557 35.2427 87.9225 35.0425 88.1894 34.6422C88.6787 33.9306 89.079 33.4858 89.3903 33.3079C89.7016 33.0855 89.9908 32.9743 90.2576 32.9743C90.8358 32.9743 91.0582 33.2856 90.9248 33.9083L84.987 59.461C84.3198 62.352 84.7646 63.7976 86.3213 63.7976C87.3443 63.7976 88.2561 63.1082 89.0567 61.7294C89.9018 60.3505 90.7469 58.2156 91.592 55.3245C91.7254 54.8353 92.0145 54.5906 92.4593 54.5906C92.7706 54.5906 92.9708 54.7241 93.0597 54.9909C93.1487 55.2578 93.1487 55.5691 93.0597 55.925C92.2147 60.1059 91.0805 63.1082 89.6572 64.9318C88.2339 66.7109 86.5215 67.6005 84.52 67.6005C82.7853 67.6005 81.5399 66.8666 80.7838 65.3988C80.0721 63.931 80.0054 61.9295 80.5836 59.3943L81.451 55.7248C81.5399 55.4135 81.4732 55.2356 81.2508 55.1911C81.0729 55.1466 80.9172 55.2578 80.7838 55.5247C78.3375 60.0169 76.1581 63.1527 74.2455 64.9318C72.3774 66.7109 70.5983 67.6005 68.9081 67.6005ZM70.5761 64.1979C71.6435 64.1979 72.8222 63.553 74.1121 62.2631C75.4019 60.9732 76.6696 59.3053 77.915 57.2593C79.2048 55.2133 80.3835 53.0117 81.451 50.6543C82.5184 48.297 83.3635 46.0286 83.9862 43.8492C84.6534 41.6697 84.987 39.8239 84.987 38.3116C84.987 35.5985 84.0307 34.2419 82.1181 34.2419C80.9617 34.2419 79.7386 34.7756 78.4487 35.8431C77.1588 36.8661 75.9134 38.2672 74.7125 40.0463C73.5561 41.8254 72.4886 43.8492 71.5101 46.1175C70.5761 48.3415 69.8199 50.6766 69.2417 53.1228C68.6635 55.5247 68.3744 57.882 68.3744 60.1949C68.3744 61.7516 68.5523 62.8191 68.9081 63.3973C69.3084 63.931 69.8644 64.1979 70.5761 64.1979Z" fill="white"/>
<path d="M50.3835 67.6005C48.0262 67.6005 46.1359 66.6887 44.7126 64.8651C43.2893 62.997 42.5776 60.3728 42.5776 56.9924C42.5776 54.0569 43.0891 51.1436 44.1121 48.2525C45.1796 45.3614 46.5584 42.7372 48.2486 40.3799C49.9388 38.0225 51.7846 36.1322 53.7861 34.7089C55.8321 33.2856 57.8114 32.574 59.7239 32.574C61.8144 32.574 63.3044 33.0855 64.194 34.1085C65.128 35.087 65.595 36.4213 65.595 38.1115C65.595 40.113 64.8834 42.1145 63.4601 44.116C62.0813 46.0731 60.1242 47.83 57.589 49.3867C55.0982 50.9434 52.1627 52.0999 48.7823 52.856C47.8038 53.0784 47.2923 53.6343 47.2478 54.5239C47.2034 54.8353 47.1811 55.1688 47.1811 55.5247C47.1811 55.836 47.1811 56.1474 47.1811 56.4587C47.1811 58.994 47.6037 60.9065 48.4487 62.1964C49.3383 63.4862 50.5392 64.1312 52.0515 64.1312C53.7416 64.1312 55.3651 63.3528 56.9218 61.7961C58.523 60.2393 59.8574 58.0377 60.9248 55.1911C61.0583 54.7908 61.3251 54.5906 61.7254 54.5906C61.9923 54.5906 62.148 54.7018 62.1925 54.9242C62.2814 55.1466 62.2814 55.4135 62.1925 55.7248C60.7692 59.6389 59.0345 62.5967 56.9885 64.5982C54.987 66.5997 52.7854 67.6005 50.3835 67.6005ZM47.915 50.3207C47.826 50.6321 47.8705 50.8989 48.0484 51.1213C48.2708 51.2992 48.5377 51.3437 48.849 51.2548C51.6067 50.4986 53.9195 49.3644 55.7876 47.8522C57.6557 46.2955 59.0568 44.5608 59.9908 42.6483C60.9693 40.7357 61.4586 38.8676 61.4586 37.044C61.4586 35.1759 60.7247 34.2419 59.2569 34.2419C57.9671 34.2419 56.566 34.998 55.0537 36.5103C53.5415 38.0225 52.1404 40.0018 50.8506 42.4481C49.5607 44.8944 48.5822 47.5186 47.915 50.3207Z" fill="white"/>
<path d="M24.6585 67C24.0359 67 23.7912 66.7109 23.9247 66.1327L30.2628 39.5126C30.4852 38.534 30.5074 37.7779 30.3295 37.2442C30.1961 36.666 29.7958 36.3769 29.1286 36.3769C28.328 36.3769 27.4384 36.9773 26.4599 38.1782C25.5259 39.3346 24.4584 41.5585 23.2575 44.8499C23.0796 45.4281 22.7682 45.7172 22.3234 45.7172C21.6563 45.7172 21.4784 45.3169 21.7897 44.5163C22.7682 41.4474 23.7912 39.0455 24.8587 37.3109C25.9706 35.5762 27.0826 34.3531 28.1946 33.6415C29.3065 32.9298 30.3295 32.574 31.2635 32.574C32.7313 32.574 33.7766 33.13 34.3992 34.2419C35.0219 35.3094 35.0442 37.0885 34.466 39.5793L33.7321 42.715C33.6876 43.0263 33.7543 43.2042 33.9322 43.2487C34.1101 43.2932 34.2658 43.182 34.3992 42.9151C36.0894 39.0455 37.6239 36.3546 39.0027 34.8424C40.3815 33.3301 41.9605 32.574 43.7396 32.574C44.9405 32.574 45.8301 32.9076 46.4083 33.5747C47.031 34.1974 47.3424 35.0647 47.3424 36.1767C47.3424 37.2887 47.0755 38.1782 46.5418 38.8454C46.008 39.5126 45.3186 39.8461 44.4735 39.8461C43.7619 39.8461 43.2504 39.6682 42.939 39.3124C42.6277 38.9566 42.3831 38.5563 42.2051 38.1115C42.0717 37.6222 41.916 37.1997 41.7381 36.8439C41.5602 36.488 41.2711 36.3101 40.8708 36.3101C40.2036 36.3101 39.3363 37.1552 38.2688 38.8454C37.2014 40.5356 36.0449 42.8262 34.7995 45.7172C33.5986 48.5638 32.42 51.7663 31.2635 55.3245C30.1516 58.8828 29.1731 62.53 28.328 66.2661C28.1946 66.7554 27.8832 67 27.3939 67H24.6585Z" fill="white"/>
<path d="M8.47381 67.6005C6.02751 67.6005 4.00376 66.5997 2.40255 64.5982C0.801338 62.5522 0.000732422 59.9502 0.000732422 56.7923C0.000732422 53.8123 0.467752 50.8989 1.40179 48.0523C2.38031 45.1613 3.67017 42.5593 5.27138 40.2464C6.91707 37.8891 8.71844 36.021 10.6755 34.6422C12.677 33.2634 14.6785 32.574 16.68 32.574C18.815 32.574 20.6163 33.1522 22.0841 34.3086C22.3065 34.4865 22.4399 34.6422 22.4844 34.7756C22.5289 34.8646 22.5066 35.087 22.4177 35.4428L20.6163 44.1828C20.4829 44.8054 20.1938 45.1168 19.749 45.1168C19.2597 45.1168 18.9706 44.7832 18.8817 44.116L18.5481 39.3791C18.4147 37.3331 18.1033 35.9988 17.614 35.3761C17.1693 34.7534 16.5021 34.4421 15.6125 34.4421C14.3671 34.4421 13.0995 35.0647 11.8097 36.3101C10.5198 37.511 9.31889 39.1567 8.20694 41.2472C7.13946 43.2932 6.27214 45.5838 5.60497 48.1191C4.98228 50.6098 4.67093 53.1451 4.67093 55.7248C4.67093 61.3291 6.49453 64.1312 10.1417 64.1312C11.8764 64.1312 13.4331 63.3306 14.8119 61.7294C16.2352 60.1281 17.5473 57.6374 18.7482 54.257C18.8817 53.8123 19.193 53.5899 19.6823 53.5899C19.9491 53.5899 20.1048 53.7011 20.1493 53.9235C20.1938 54.1014 20.1493 54.4794 20.0159 55.0576C19.5711 57.5039 18.7705 59.6611 17.614 61.5292C16.4576 63.3973 15.0788 64.8873 13.4776 65.9993C11.9209 67.0667 10.2529 67.6005 8.47381 67.6005Z" fill="white"/>
<mask id="mask0_135_115" style="mask-type:luminance" maskUnits="userSpaceOnUse" x="108" y="0" width="23" height="25">
<path d="M108 0H131V25H108V0Z" fill="white"/>
</mask>
<g mask="url(#mask0_135_115)">
<path d="M130.998 12.499C122.374 14.2248 121.087 15.6237 119.499 24.998C117.911 15.6237 116.624 14.2248 108 12.499C116.624 10.7733 117.911 9.37427 119.499 0C121.087 9.37427 122.374 10.7733 130.998 12.499Z" fill="white"/>
</g>
</svg>
