<svg width="240" height="119" viewBox="0 0 240 119" fill="none" xmlns="http://www.w3.org/2000/svg">
<path d="M224.06 118.1H213.433V89.4007H224.06V93.8402H223.885C224.072 93.3042 224.526 92.6284 225.249 91.8127C225.971 90.9738 226.985 90.228 228.29 89.5755C229.595 88.8997 231.191 88.5618 233.079 88.5618C234.407 88.5618 235.631 88.7715 236.749 89.191C237.868 89.5872 238.684 89.9717 239.196 90.3446L235.071 98.9788C234.745 98.5826 234.163 98.1748 233.324 97.7553C232.508 97.3126 231.483 97.0912 230.247 97.0912C228.826 97.0912 227.649 97.4524 226.717 98.1748C225.808 98.8972 225.132 99.7712 224.689 100.797C224.27 101.822 224.06 102.789 224.06 103.698V118.1Z" fill="white"/>
<path d="M187.982 106.005C188.052 107.03 188.378 107.939 188.961 108.732C189.543 109.524 190.347 110.153 191.373 110.619C192.421 111.062 193.656 111.284 195.078 111.284C196.43 111.284 197.641 111.144 198.713 110.864C199.809 110.584 200.753 110.235 201.545 109.815C202.361 109.396 202.99 108.965 203.433 108.522L207.557 115.094C206.975 115.723 206.147 116.341 205.075 116.946C204.027 117.529 202.64 118.007 200.916 118.38C199.191 118.753 197.012 118.939 194.379 118.939C191.209 118.939 188.39 118.345 185.919 117.156C183.449 115.968 181.503 114.22 180.082 111.913C178.66 109.606 177.949 106.786 177.949 103.453C177.949 100.657 178.555 98.1399 179.767 95.9026C181.002 93.6421 182.785 91.8593 185.115 90.5543C187.446 89.2259 190.254 88.5618 193.54 88.5618C196.663 88.5618 199.366 89.1327 201.65 90.2746C203.957 91.4166 205.728 93.1178 206.963 95.3783C208.222 97.6155 208.851 100.412 208.851 103.768C208.851 103.954 208.839 104.327 208.816 104.886C208.816 105.446 208.793 105.819 208.746 106.005H187.982ZM198.853 100.447C198.83 99.7012 198.632 98.9672 198.259 98.2447C197.886 97.499 197.327 96.8931 196.581 96.427C195.835 95.9376 194.88 95.6929 193.715 95.6929C192.549 95.6929 191.559 95.9259 190.743 96.392C189.951 96.8348 189.345 97.4174 188.926 98.1399C188.506 98.8623 188.273 99.6313 188.226 100.447H198.853Z" fill="white"/>
<path d="M164.619 89.4009H176.644L163.116 103.104L178.043 118.1H165.738L154.657 106.565V118.1H144.03V70H154.657V99.3984L164.619 89.4009Z" fill="white"/>
<path d="M130.832 110.584C132.16 110.584 133.255 110.363 134.118 109.92C134.98 109.454 135.563 109.081 135.865 108.802L140.724 116.003C140.352 116.306 139.711 116.702 138.802 117.191C137.893 117.657 136.751 118.065 135.376 118.415C134.024 118.764 132.475 118.939 130.727 118.939C127.441 118.939 124.551 118.321 122.058 117.086C119.564 115.828 117.618 114.057 116.22 111.773C114.845 109.489 114.157 106.809 114.157 103.733C114.157 100.633 114.845 97.9534 116.22 95.6929C117.618 93.4324 119.564 91.6846 122.058 90.4494C124.551 89.191 127.441 88.5618 130.727 88.5618C132.451 88.5618 133.989 88.7482 135.341 89.1211C136.716 89.4706 137.87 89.8785 138.802 90.3446C139.734 90.7873 140.387 91.1719 140.759 91.4981L135.796 98.7691C135.632 98.6059 135.329 98.3729 134.887 98.0699C134.467 97.767 133.92 97.499 133.244 97.2659C132.568 97.0329 131.764 96.9164 130.832 96.9164C129.69 96.9164 128.618 97.2077 127.616 97.7903C126.637 98.3729 125.845 99.1769 125.239 100.202C124.633 101.228 124.33 102.405 124.33 103.733C124.33 105.061 124.633 106.25 125.239 107.298C125.845 108.324 126.637 109.128 127.616 109.71C128.618 110.293 129.69 110.584 130.832 110.584Z" fill="white"/>
<path d="M98.0806 118.1V113.451C97.8708 113.917 97.3348 114.593 96.4726 115.478C95.6336 116.364 94.515 117.168 93.1168 117.89C91.7185 118.589 90.0872 118.939 88.2228 118.939C85.4263 118.939 82.9794 118.263 80.882 116.912C78.7846 115.537 77.1533 113.707 75.9881 111.423C74.8228 109.116 74.2402 106.564 74.2402 103.768C74.2402 100.971 74.8228 98.4312 75.9881 96.1473C77.1533 93.8402 78.7846 91.9992 80.882 90.6242C82.9794 89.2492 85.4263 88.5618 88.2228 88.5618C90.0173 88.5618 91.5903 88.8531 92.942 89.4357C94.2936 89.995 95.3889 90.6708 96.2279 91.4632C97.0668 92.2322 97.6495 92.943 97.9757 93.5955V89.4007H108.533V118.1H98.0806ZM84.6573 103.768C84.6573 105.073 84.9602 106.25 85.5662 107.298C86.1721 108.324 86.9761 109.128 87.9781 109.71C89.0035 110.293 90.1338 110.584 91.3689 110.584C92.6507 110.584 93.7809 110.293 94.7597 109.71C95.7385 109.128 96.5075 108.324 97.0668 107.298C97.6495 106.25 97.9408 105.073 97.9408 103.768C97.9408 102.463 97.6495 101.298 97.0668 100.272C96.5075 99.2235 95.7385 98.4079 94.7597 97.8252C93.7809 97.2193 92.6507 96.9164 91.3689 96.9164C90.1338 96.9164 89.0035 97.2193 87.9781 97.8252C86.9761 98.4079 86.1721 99.2235 85.5662 100.272C84.9602 101.298 84.6573 102.463 84.6573 103.768Z" fill="white"/>
<path d="M58.5628 118.1H47.936V89.4007H58.5628V93.8402H58.388C58.5745 93.3042 59.0289 92.6284 59.7513 91.8127C60.4738 90.9738 61.4875 90.228 62.7926 89.5755C64.0976 88.8997 65.6939 88.5618 67.5816 88.5618C68.9099 88.5618 70.1334 88.7715 71.252 89.191C72.3706 89.5872 73.1863 89.9717 73.699 90.3446L69.5741 98.9788C69.2479 98.5826 68.6653 98.1748 67.8263 97.7553C67.0106 97.3126 65.9853 97.0912 64.7501 97.0912C63.3286 97.0912 62.1517 97.4524 61.2195 98.1748C60.3106 98.8972 59.6348 99.7712 59.192 100.797C58.7726 101.822 58.5628 102.789 58.5628 103.698V118.1Z" fill="white"/>
<path d="M21 89.4007H25.8939V77.6204H36.4158V89.4007H42.8478V98.1398H36.4158V106.145C36.4158 107.333 36.5906 108.301 36.9402 109.046C37.2897 109.769 37.9306 110.13 38.8628 110.13C39.492 110.13 40.028 109.99 40.4708 109.71C40.9136 109.431 41.1816 109.244 41.2748 109.151L44.9103 116.702C44.7471 116.842 44.2344 117.098 43.3722 117.471C42.5332 117.844 41.4612 118.182 40.1562 118.485C38.8511 118.787 37.3946 118.939 35.7866 118.939C32.9202 118.939 30.5548 118.135 28.6904 116.527C26.8261 114.896 25.8939 112.39 25.8939 109.011V98.1398H21V89.4007Z" fill="white"/>
<path d="M159.28 67.6005C156.923 67.6005 155.033 66.6887 153.609 64.8651C152.186 62.997 151.474 60.3728 151.474 56.9924C151.474 54.0569 151.986 51.1436 153.009 48.2525C154.076 45.3614 155.455 42.7372 157.145 40.3799C158.835 38.0225 160.681 36.1322 162.683 34.7089C164.729 33.2856 166.708 32.574 168.621 32.574C170.711 32.574 172.201 33.0855 173.091 34.1085C174.025 35.087 174.492 36.4213 174.492 38.1115C174.492 40.113 173.78 42.1145 172.357 44.116C170.978 46.0731 169.021 47.83 166.486 49.3867C163.995 50.9434 161.059 52.0999 157.679 52.856C156.701 53.0784 156.189 53.6343 156.145 54.5239C156.1 54.8353 156.078 55.1688 156.078 55.5247C156.078 55.836 156.078 56.1474 156.078 56.4587C156.078 58.994 156.5 60.9065 157.345 62.1964C158.235 63.4862 159.436 64.1312 160.948 64.1312C162.638 64.1312 164.262 63.3528 165.819 61.7961C167.42 60.2393 168.754 58.0377 169.822 55.1911C169.955 54.7908 170.222 54.5906 170.622 54.5906C170.889 54.5906 171.045 54.7018 171.089 54.9242C171.178 55.1466 171.178 55.4135 171.089 55.7248C169.666 59.6389 167.931 62.5967 165.885 64.5982C163.884 66.5997 161.682 67.6005 159.28 67.6005ZM156.812 50.3207C156.723 50.6321 156.767 50.8989 156.945 51.1213C157.168 51.2992 157.434 51.3437 157.746 51.2548C160.503 50.4986 162.816 49.3644 164.684 47.8522C166.552 46.2955 167.954 44.5608 168.888 42.6483C169.866 40.7357 170.355 38.8676 170.355 37.044C170.355 35.1759 169.621 34.2419 168.154 34.2419C166.864 34.2419 165.463 34.998 163.95 36.5103C162.438 38.0225 161.037 40.0018 159.747 42.4481C158.457 44.8944 157.479 47.5186 156.812 50.3207Z" fill="white"/>
<path d="M135.255 67.6005C133.075 67.6005 131.452 66.7776 130.385 65.1319C129.317 63.4862 129.117 61.3735 129.784 58.7938L134.921 39.5126C135.5 37.4221 135.144 36.3769 133.854 36.3769C132.92 36.3769 131.986 37.044 131.052 38.3784C130.162 39.7127 129.184 41.8921 128.116 44.9166C127.938 45.4504 127.627 45.7172 127.182 45.7172C126.96 45.7172 126.782 45.6283 126.648 45.4504C126.515 45.228 126.493 44.9611 126.582 44.6498C129.161 36.5992 132.386 32.574 136.256 32.574C137.768 32.574 138.791 33.1967 139.325 34.4421C139.858 35.6874 139.836 37.3998 139.258 39.5793L133.987 59.461C133.498 61.3291 133.454 62.7746 133.854 63.7976C134.299 64.7761 135.077 65.2654 136.189 65.2654C137.479 65.2654 138.835 64.6427 140.259 63.3973C141.726 62.1519 143.105 60.5284 144.395 58.5269C145.685 56.5254 146.73 54.3238 147.531 51.9219C148.331 49.5201 148.732 47.1628 148.732 44.8499C148.732 42.9818 148.532 41.5141 148.131 40.4466C147.731 39.3346 147.308 38.4006 146.864 37.6445C146.463 36.8883 146.263 36.0655 146.263 35.1759C146.263 33.4413 147.019 32.574 148.532 32.574C150.667 32.574 151.734 34.9313 151.734 39.646C151.734 43.0263 151.245 46.3844 150.266 49.7203C149.288 53.0117 147.998 56.0139 146.397 58.7271C144.795 61.3958 143.016 63.553 141.059 65.1986C139.147 66.7999 137.212 67.6005 135.255 67.6005Z" fill="white"/>
<path d="M116.101 67.6672C114.634 67.6672 113.588 67.1334 112.966 66.066C112.343 64.954 112.321 63.1526 112.899 60.6619L117.836 39.5126C118.058 38.534 118.081 37.7779 117.903 37.2442C117.769 36.666 117.369 36.3769 116.702 36.3769C115.901 36.3769 115.012 36.9773 114.033 38.1782C113.099 39.3346 112.032 41.5585 110.831 44.8499C110.653 45.4281 110.341 45.7172 109.897 45.7172C109.23 45.7172 109.052 45.3169 109.363 44.5163C110.341 41.4474 111.364 39.0455 112.432 37.3109C113.544 35.5762 114.656 34.3531 115.768 33.6415C116.88 32.9298 117.903 32.574 118.837 32.574C120.394 32.574 121.483 33.13 122.106 34.2419C122.729 35.3094 122.751 37.0885 122.173 39.5793L117.236 60.7286C117.013 61.7071 116.969 62.4855 117.102 63.0637C117.28 63.5974 117.703 63.8643 118.37 63.8643C119.17 63.8643 120.038 63.2861 120.972 62.1297C121.95 60.9288 123.04 58.6826 124.241 55.3912C124.419 54.813 124.73 54.5239 125.175 54.5239C125.842 54.5239 126.02 54.9242 125.709 55.7248C124.775 58.7493 123.729 61.1511 122.573 62.9303C121.461 64.6649 120.349 65.8881 119.237 66.5997C118.125 67.3114 117.08 67.6672 116.101 67.6672Z" fill="white"/>
<path d="M98.5907 67.6005C97.0784 67.6005 95.8997 67.0001 95.0547 65.7992C94.2096 64.5983 94.0761 62.6635 94.6544 59.9948L100.192 35.8432C100.325 35.176 100.058 34.8424 99.3913 34.8424H96.856C96.2333 34.8424 95.922 34.5533 95.922 33.9751C95.922 33.6638 96.0332 33.4191 96.2556 33.2412C96.478 33.0633 96.7448 32.9744 97.0562 32.9744H99.458C100.481 32.9744 101.081 32.5073 101.259 31.5733L102.861 24.4346C102.994 23.9453 103.305 23.7007 103.795 23.7007H106.53C107.153 23.7007 107.397 23.9898 107.264 24.568L105.596 31.9736C105.463 32.6408 105.729 32.9744 106.397 32.9744H110.199C110.956 32.9744 111.334 33.2635 111.334 33.8417C111.334 34.5089 110.867 34.8424 109.933 34.8424H106.33C105.351 34.8424 104.751 35.3095 104.528 36.2435L98.9242 60.662C98.7019 61.6405 98.7241 62.4189 98.991 62.9971C99.3023 63.5308 99.8138 63.7977 100.525 63.7977C101.548 63.7977 102.482 63.2195 103.328 62.063C104.217 60.9066 105.151 58.7049 106.13 55.458C106.308 54.8798 106.597 54.5907 106.997 54.5907C107.308 54.5907 107.509 54.7241 107.597 54.991C107.686 55.2579 107.62 55.7471 107.397 56.4588C106.552 59.4833 105.618 61.7962 104.595 63.3974C103.617 64.9986 102.616 66.1105 101.593 66.7332C100.57 67.3114 99.5692 67.6005 98.5907 67.6005Z" fill="white"/>
<path d="M68.9074 67.6005C67.3062 67.6005 66.0608 66.9111 65.1713 65.5322C64.2817 64.1534 63.8369 62.1297 63.8369 59.461C63.8369 56.9257 64.1927 54.3905 64.9044 51.8552C65.616 49.2755 66.5945 46.8292 67.8399 44.5163C69.0853 42.2035 70.4864 40.1575 72.0431 38.3784C73.6443 36.5992 75.3123 35.1982 77.0469 34.1752C78.826 33.1077 80.5829 32.574 82.3176 32.574C83.1626 32.574 83.9632 32.7519 84.7194 33.1077C85.4755 33.4191 86.0982 33.9306 86.5874 34.6422C86.8543 35.0425 87.1212 35.2427 87.3881 35.2427C87.6549 35.2427 87.9218 35.0425 88.1887 34.6422C88.6779 33.9306 89.0782 33.4858 89.3896 33.3079C89.7009 33.0855 89.99 32.9743 90.2569 32.9743C90.8351 32.9743 91.0575 33.2856 90.9241 33.9083L84.9862 59.461C84.3191 62.352 84.7638 63.7976 86.3206 63.7976C87.3436 63.7976 88.2554 63.1082 89.056 61.7294C89.9011 60.3505 90.7461 58.2156 91.5912 55.3245C91.7247 54.8353 92.0138 54.5906 92.4586 54.5906C92.7699 54.5906 92.97 54.7241 93.059 54.9909C93.148 55.2578 93.148 55.5691 93.059 55.925C92.2139 60.1059 91.0797 63.1082 89.6564 64.9318C88.2331 66.7109 86.5207 67.6005 84.5192 67.6005C82.7846 67.6005 81.5392 66.8666 80.7831 65.3988C80.0714 63.931 80.0047 61.9295 80.5829 59.3943L81.4502 55.7248C81.5392 55.4135 81.4725 55.2356 81.2501 55.1911C81.0722 55.1466 80.9165 55.2578 80.7831 55.5247C78.3368 60.0169 76.1573 63.1527 74.2448 64.9318C72.3767 66.7109 70.5976 67.6005 68.9074 67.6005ZM70.5753 64.1979C71.6428 64.1979 72.8215 63.553 74.1114 62.2631C75.4012 60.9732 76.6688 59.3053 77.9142 57.2593C79.2041 55.2133 80.3828 53.0117 81.4502 50.6543C82.5177 48.297 83.3628 46.0286 83.9855 43.8492C84.6527 41.6697 84.9862 39.8239 84.9862 38.3116C84.9862 35.5985 84.03 34.2419 82.1174 34.2419C80.961 34.2419 79.7378 34.7756 78.448 35.8431C77.1581 36.8661 75.9127 38.2672 74.7118 40.0463C73.5554 41.8254 72.4879 43.8492 71.5094 46.1175C70.5753 48.3415 69.8192 50.6766 69.241 53.1228C68.6628 55.5247 68.3737 57.882 68.3737 60.1949C68.3737 61.7516 68.5516 62.8191 68.9074 63.3973C69.3077 63.931 69.8637 64.1979 70.5753 64.1979Z" fill="white"/>
<path d="M50.3828 67.6005C48.0255 67.6005 46.1352 66.6887 44.7119 64.8651C43.2886 62.997 42.5769 60.3728 42.5769 56.9924C42.5769 54.0569 43.0884 51.1436 44.1114 48.2525C45.1789 45.3614 46.5577 42.7372 48.2479 40.3799C49.938 38.0225 51.7839 36.1322 53.7854 34.7089C55.8314 33.2856 57.8106 32.574 59.7232 32.574C61.8137 32.574 63.3037 33.0855 64.1932 34.1085C65.1273 35.087 65.5943 36.4213 65.5943 38.1115C65.5943 40.113 64.8827 42.1145 63.4594 44.116C62.0805 46.0731 60.1235 47.83 57.5883 49.3867C55.0975 50.9434 52.1619 52.0999 48.7816 52.856C47.8031 53.0784 47.2916 53.6343 47.2471 54.5239C47.2026 54.8353 47.1804 55.1688 47.1804 55.5247C47.1804 55.836 47.1804 56.1474 47.1804 56.4587C47.1804 58.994 47.6029 60.9065 48.448 62.1964C49.3376 63.4862 50.5385 64.1312 52.0507 64.1312C53.7409 64.1312 55.3643 63.3528 56.9211 61.7961C58.5223 60.2393 59.8566 58.0377 60.9241 55.1911C61.0575 54.7908 61.3244 54.5906 61.7247 54.5906C61.9916 54.5906 62.1473 54.7018 62.1917 54.9242C62.2807 55.1466 62.2807 55.4135 62.1917 55.7248C60.7684 59.6389 59.0338 62.5967 56.9878 64.5982C54.9863 66.5997 52.7846 67.6005 50.3828 67.6005ZM47.9143 50.3207C47.8253 50.6321 47.8698 50.8989 48.0477 51.1213C48.2701 51.2992 48.537 51.3437 48.8483 51.2548C51.606 50.4986 53.9188 49.3644 55.7869 47.8522C57.655 46.2955 59.056 44.5608 59.9901 42.6483C60.9686 40.7357 61.4578 38.8676 61.4578 37.044C61.4578 35.1759 60.724 34.2419 59.2562 34.2419C57.9663 34.2419 56.5653 34.998 55.053 36.5103C53.5408 38.0225 52.1397 40.0018 50.8498 42.4481C49.56 44.8944 48.5814 47.5186 47.9143 50.3207Z" fill="white"/>
<path d="M24.6578 67C24.0351 67 23.7905 66.7109 23.9239 66.1327L30.2621 39.5126C30.4844 38.534 30.5067 37.7779 30.3288 37.2442C30.1953 36.666 29.795 36.3769 29.1279 36.3769C28.3273 36.3769 27.4377 36.9773 26.4592 38.1782C25.5251 39.3346 24.4577 41.5585 23.2568 44.8499C23.0788 45.4281 22.7675 45.7172 22.3227 45.7172C21.6555 45.7172 21.4776 45.3169 21.789 44.5163C22.7675 41.4474 23.7905 39.0455 24.858 37.3109C25.9699 35.5762 27.0819 34.3531 28.1938 33.6415C29.3058 32.9298 30.3288 32.574 31.2628 32.574C32.7306 32.574 33.7758 33.13 34.3985 34.2419C35.0212 35.3094 35.0434 37.0885 34.4652 39.5793L33.7313 42.715C33.6869 43.0263 33.7536 43.2042 33.9315 43.2487C34.1094 43.2932 34.2651 43.182 34.3985 42.9151C36.0887 39.0455 37.6232 36.3546 39.002 34.8424C40.3808 33.3301 41.9598 32.574 43.7389 32.574C44.9398 32.574 45.8294 32.9076 46.4076 33.5747C47.0303 34.1974 47.3416 35.0647 47.3416 36.1767C47.3416 37.2887 47.0748 38.1782 46.541 38.8454C46.0073 39.5126 45.3179 39.8461 44.4728 39.8461C43.7611 39.8461 43.2497 39.6682 42.9383 39.3124C42.627 38.9566 42.3823 38.5563 42.2044 38.1115C42.071 37.6222 41.9153 37.1997 41.7374 36.8439C41.5595 36.488 41.2704 36.3101 40.8701 36.3101C40.2029 36.3101 39.3356 37.1552 38.2681 38.8454C37.2006 40.5356 36.0442 42.8262 34.7988 45.7172C33.5979 48.5638 32.4192 51.7663 31.2628 55.3245C30.1509 58.8828 29.1723 62.53 28.3273 66.2661C28.1938 66.7554 27.8825 67 27.3932 67H24.6578Z" fill="white"/>
<path d="M8.47307 67.6005C6.02678 67.6005 4.00303 66.5997 2.40182 64.5982C0.800605 62.5522 0 59.9502 0 56.7923C0 53.8123 0.46702 50.8989 1.40106 48.0523C2.37958 45.1613 3.66944 42.5593 5.27065 40.2464C6.91634 37.8891 8.7177 36.021 10.6747 34.6422C12.6763 33.2634 14.6778 32.574 16.6793 32.574C18.8142 32.574 20.6156 33.1522 22.0834 34.3086C22.3058 34.4865 22.4392 34.6422 22.4837 34.7756C22.5281 34.8646 22.5059 35.087 22.4169 35.4428L20.6156 44.1828C20.4822 44.8054 20.193 45.1168 19.7483 45.1168C19.259 45.1168 18.9699 44.7832 18.8809 44.116L18.5474 39.3791C18.4139 37.3331 18.1026 35.9988 17.6133 35.3761C17.1685 34.7534 16.5014 34.4421 15.6118 34.4421C14.3664 34.4421 13.0988 35.0647 11.8089 36.3101C10.5191 37.511 9.31816 39.1567 8.20621 41.2472C7.13873 43.2932 6.27141 45.5838 5.60424 48.1191C4.98154 50.6098 4.6702 53.1451 4.6702 55.7248C4.6702 61.3291 6.4938 64.1312 10.141 64.1312C11.8756 64.1312 13.4324 63.3306 14.8112 61.7294C16.2345 60.1281 17.5466 57.6374 18.7475 54.257C18.8809 53.8123 19.1923 53.5899 19.6815 53.5899C19.9484 53.5899 20.1041 53.7011 20.1486 53.9235C20.193 54.1014 20.1486 54.4794 20.0151 55.0576C19.5704 57.5039 18.7697 59.6611 17.6133 61.5292C16.4569 63.3973 15.0781 64.8873 13.4769 65.9993C11.9201 67.0667 10.2522 67.6005 8.47307 67.6005Z" fill="white"/>
<mask id="mask0_135_150" style="mask-type:luminance" maskUnits="userSpaceOnUse" x="107" y="0" width="24" height="25">
<path d="M107.999 0H130.999V25H107.999V0Z" fill="white"/>
</mask>
<g mask="url(#mask0_135_150)">
<path d="M130.997 12.499C122.373 14.2248 121.086 15.6237 119.498 24.998C117.911 15.6237 116.624 14.2248 107.999 12.499C116.624 10.7733 117.911 9.37427 119.498 0C121.086 9.37427 122.373 10.7733 130.997 12.499Z" fill="white"/>
</g>
</svg>
